<svg width="608" height="122" viewBox="0 0 608 122" fill="none" xmlns="http://www.w3.org/2000/svg">
<g filter="url(#filter0_d_159_2429)">
<path d="M51.0258 8.25841L27.9913 94.2243M94.0088 19.7757L70.9742 105.742M23.7757 23.9912L45.2671 29.7499M12.2584 66.9742L33.7499 72.7329M18.017 45.4827L103.983 68.5172M88.2501 41.2671L109.742 47.0258M76.7329 84.2501L98.2244 90.0087M26.655 13.2455C27.4186 10.3956 29.2831 7.96571 31.8383 6.49047C34.3935 5.01523 37.4301 4.61546 40.28 5.3791L104.754 22.655C107.604 23.4186 110.034 25.2831 111.51 27.8383C112.985 30.3935 113.385 33.4301 112.621 36.28L95.345 100.754C94.5814 103.604 92.7169 106.034 90.1617 107.51C87.6065 108.985 84.5699 109.385 81.72 108.621L17.2455 91.345C14.3956 90.5814 11.9657 88.7169 10.4905 86.1617C9.01523 83.6065 8.61546 80.5699 9.3791 77.72L26.655 13.2455Z" stroke="url(#paint0_linear_159_2429)" stroke-width="10" stroke-linecap="round" stroke-linejoin="round"/>
</g>
<g filter="url(#filter1_d_159_2429)">
<mask id="path-2-inside-1_159_2429" fill="white">
<path d="M141.902 36.728C140.067 36.728 138.425 37.0907 136.974 37.816C135.566 38.5413 134.371 39.5867 133.39 40.952C132.409 42.2747 131.662 43.896 131.15 45.816C130.681 47.736 130.446 49.8907 130.446 52.28C130.446 55.5227 130.83 58.296 131.598 60.6C132.409 62.8613 133.667 64.5893 135.374 65.784C137.081 66.9787 139.257 67.576 141.902 67.576C143.779 67.576 145.635 67.3627 147.47 66.936C149.347 66.5093 151.374 65.912 153.55 65.144V73.272C151.545 74.0827 149.561 74.68 147.598 75.064C145.635 75.448 143.438 75.64 141.006 75.64C136.313 75.64 132.43 74.68 129.358 72.76C126.329 70.7973 124.089 68.0667 122.638 64.568C121.187 61.0267 120.462 56.9093 120.462 52.216C120.462 48.76 120.931 45.6027 121.87 42.744C122.809 39.8427 124.174 37.3467 125.966 35.256C127.801 33.1653 130.041 31.544 132.686 30.392C135.374 29.24 138.446 28.664 141.902 28.664C144.163 28.664 146.425 28.9627 148.686 29.56C150.99 30.1147 153.187 30.8827 155.278 31.864L152.142 39.736C150.435 38.9253 148.707 38.2213 146.958 37.624C145.251 37.0267 143.566 36.728 141.902 36.728ZM176.892 39.416C180.135 39.416 182.908 40.0347 185.212 41.272C187.559 42.5093 189.372 44.3013 190.652 46.648C191.932 48.9947 192.572 51.8747 192.572 55.288V59.896H170.044C170.129 62.584 170.919 64.696 172.412 66.232C173.948 67.768 176.06 68.536 178.748 68.536C181.009 68.536 183.057 68.3227 184.892 67.896C186.727 67.4267 188.625 66.7227 190.588 65.784V73.144C188.881 73.9973 187.068 74.616 185.148 75C183.271 75.4267 180.988 75.64 178.3 75.64C174.801 75.64 171.708 75 169.02 73.72C166.332 72.3973 164.22 70.4133 162.684 67.768C161.148 65.1227 160.38 61.7947 160.38 57.784C160.38 53.688 161.063 50.296 162.428 47.608C163.836 44.8773 165.777 42.8293 168.252 41.464C170.727 40.0987 173.607 39.416 176.892 39.416ZM176.956 46.2C175.121 46.2 173.585 46.7973 172.348 47.992C171.153 49.1867 170.449 51.0427 170.236 53.56H183.612C183.612 52.152 183.356 50.8933 182.844 49.784C182.375 48.6747 181.649 47.8 180.668 47.16C179.687 46.52 178.449 46.2 176.956 46.2ZM219.761 39.416C223.686 39.416 226.865 40.952 229.297 44.024C231.729 47.0533 232.944 51.5333 232.944 57.464C232.944 61.432 232.369 64.7813 231.217 67.512C230.065 70.2 228.486 72.2267 226.481 73.592C224.475 74.9573 222.15 75.64 219.505 75.64C217.841 75.64 216.39 75.4267 215.153 75C213.958 74.5733 212.934 74.0187 212.081 73.336C211.227 72.6533 210.481 71.928 209.841 71.16H209.329C209.499 71.9707 209.627 72.824 209.713 73.72C209.798 74.5733 209.841 75.4267 209.841 76.28V90.36H200.305V40.056H208.049L209.393 44.6H209.841C210.481 43.6613 211.249 42.808 212.145 42.04C213.041 41.2293 214.107 40.5893 215.345 40.12C216.625 39.6507 218.097 39.416 219.761 39.416ZM216.689 47.032C215.025 47.032 213.702 47.3733 212.721 48.056C211.739 48.7387 211.014 49.784 210.545 51.192C210.118 52.5573 209.883 54.2853 209.841 56.376V57.4C209.841 59.6613 210.054 61.5813 210.481 63.16C210.907 64.696 211.633 65.8693 212.657 66.68C213.681 67.4907 215.067 67.896 216.817 67.896C218.267 67.896 219.462 67.4907 220.401 66.68C221.339 65.8693 222.043 64.6747 222.513 63.096C222.982 61.5173 223.217 59.5973 223.217 57.336C223.217 53.9227 222.683 51.3627 221.617 49.656C220.593 47.9067 218.95 47.032 216.689 47.032ZM250.021 53.88C250.021 54.6053 249.978 55.5013 249.893 56.568C249.85 57.6347 249.786 58.7227 249.701 59.832C249.658 60.9413 249.594 61.9227 249.509 62.776C249.423 63.6293 249.359 64.2267 249.317 64.568L265.445 40.056H276.901V75H267.685V61.048C267.685 59.896 267.727 58.6373 267.812 57.272C267.898 55.864 267.983 54.5627 268.069 53.368C268.197 52.1307 268.282 51.192 268.325 50.552L252.26 75H240.805V40.056H250.021V53.88ZM301.203 39.352C305.896 39.352 309.48 40.376 311.955 42.424C314.472 44.4293 315.731 47.5227 315.731 51.704V75H309.075L307.219 70.264H306.963C305.982 71.5013 304.958 72.5253 303.891 73.336C302.867 74.1467 301.672 74.7227 300.307 75.064C298.984 75.448 297.342 75.64 295.379 75.64C293.331 75.64 291.475 75.256 289.811 74.488C288.19 73.6773 286.91 72.4613 285.971 70.84C285.032 69.176 284.563 67.0853 284.563 64.568C284.563 60.856 285.864 58.1253 288.467 56.376C291.07 54.584 294.974 53.6027 300.179 53.432L306.259 53.24V51.704C306.259 49.8693 305.768 48.5253 304.787 47.672C303.848 46.8187 302.526 46.392 300.819 46.392C299.112 46.392 297.448 46.648 295.827 47.16C294.206 47.6293 292.584 48.2267 290.963 48.952L287.827 42.488C289.704 41.5067 291.774 40.7387 294.035 40.184C296.339 39.6293 298.728 39.352 301.203 39.352ZM302.547 58.936C299.475 59.0213 297.342 59.576 296.147 60.6C294.952 61.624 294.355 62.968 294.355 64.632C294.355 66.0827 294.782 67.128 295.635 67.768C296.488 68.3653 297.598 68.664 298.963 68.664C301.011 68.664 302.739 68.0667 304.147 66.872C305.555 65.6347 306.259 63.9067 306.259 61.688V58.808L302.547 58.936ZM356.788 75H347.252V47.224H338.484C338.057 52.344 337.524 56.7173 336.884 60.344C336.287 63.928 335.519 66.8507 334.58 69.112C333.684 71.3733 332.532 73.0373 331.124 74.104C329.716 75.128 327.988 75.64 325.94 75.64C324.831 75.64 323.828 75.5547 322.932 75.384C322.036 75.2133 321.225 74.9573 320.5 74.616V67C320.969 67.1707 321.46 67.32 321.972 67.448C322.484 67.576 323.017 67.64 323.572 67.64C324.169 67.64 324.724 67.4053 325.236 66.936C325.791 66.4667 326.303 65.6347 326.772 64.44C327.284 63.2453 327.753 61.6027 328.18 59.512C328.607 57.4213 328.991 54.7973 329.332 51.64C329.716 48.44 330.057 44.5787 330.356 40.056H356.788V75ZM411.568 29.88V39.864H399.536V75H386.992V39.864H375.088V29.88H411.568ZM432.913 75.448C429.329 75.448 426.108 74.7013 423.249 73.208C420.433 71.7147 418.214 69.5813 416.593 66.808C414.972 64.0347 414.161 60.7707 414.161 57.016C414.161 53.304 414.972 50.0613 416.593 47.288C418.257 44.5147 420.497 42.3813 423.313 40.888C426.172 39.3947 429.393 38.648 432.977 38.648C436.561 38.648 439.761 39.3947 442.577 40.888C445.436 42.3813 447.676 44.5147 449.297 47.288C450.961 50.0613 451.793 53.304 451.793 57.016C451.793 60.728 450.961 63.992 449.297 66.808C447.676 69.5813 445.436 71.7147 442.577 73.208C439.718 74.7013 436.497 75.448 432.913 75.448ZM432.913 64.568C434.662 64.568 436.113 63.928 437.265 62.648C438.46 61.3253 439.057 59.448 439.057 57.016C439.057 54.584 438.46 52.728 437.265 51.448C436.113 50.168 434.684 49.528 432.977 49.528C431.27 49.528 429.841 50.168 428.689 51.448C427.537 52.728 426.961 54.584 426.961 57.016C426.961 59.4907 427.516 61.368 428.625 62.648C429.734 63.928 431.164 64.568 432.913 64.568ZM454.849 57.016C454.849 53.304 455.51 50.0613 456.833 47.288C458.198 44.5147 460.054 42.3813 462.401 40.888C464.747 39.3947 467.35 38.648 470.208 38.648C472.513 38.648 474.561 39.1387 476.353 40.12C478.187 41.0587 479.617 42.36 480.641 44.024V27.64H493.249V75H480.641V70.008C479.659 71.672 478.273 72.9947 476.481 73.976C474.689 74.9573 472.577 75.448 470.145 75.448C467.286 75.448 464.683 74.7013 462.337 73.208C460.033 71.7147 458.198 69.5813 456.833 66.808C455.51 63.992 454.849 60.728 454.849 57.016ZM480.705 57.016C480.705 54.712 480.065 52.8987 478.785 51.576C477.547 50.2533 476.011 49.592 474.177 49.592C472.299 49.592 470.742 50.2533 469.505 51.576C468.267 52.856 467.649 54.6693 467.649 57.016C467.649 59.32 468.267 61.1547 469.505 62.52C470.742 63.8427 472.299 64.504 474.177 64.504C476.011 64.504 477.547 63.8427 478.785 62.52C480.065 61.1973 480.705 59.3627 480.705 57.016ZM498.349 57.016C498.349 53.304 499.01 50.0613 500.333 47.288C501.698 44.5147 503.533 42.3813 505.837 40.888C508.183 39.3947 510.786 38.648 513.645 38.648C516.119 38.648 518.253 39.1387 520.045 40.12C521.837 41.1013 523.223 42.424 524.205 44.088V39.096H536.749V75H524.205V70.008C523.223 71.672 521.815 72.9947 519.981 73.976C518.189 74.9573 516.077 75.448 513.645 75.448C510.786 75.448 508.183 74.7013 505.837 73.208C503.533 71.7147 501.698 69.5813 500.333 66.808C499.01 63.992 498.349 60.728 498.349 57.016ZM524.205 57.016C524.205 54.712 523.565 52.8987 522.285 51.576C521.047 50.2533 519.511 49.592 517.677 49.592C515.799 49.592 514.242 50.2533 513.005 51.576C511.767 52.856 511.149 54.6693 511.149 57.016C511.149 59.32 511.767 61.1547 513.005 62.52C514.242 63.8427 515.799 64.504 517.677 64.504C519.511 64.504 521.047 63.8427 522.285 62.52C523.565 61.1973 524.205 59.3627 524.205 57.016ZM582.553 39.096L559.769 92.088H546.137L554.713 73.464L539.992 39.096H553.945L561.497 59.448L568.793 39.096H582.553Z"/>
</mask>
<path d="M136.974 37.816L132.502 28.8717L132.448 28.8987L132.394 28.9263L136.974 37.816ZM133.39 40.952L141.421 46.9105L141.466 46.8498L141.51 46.7884L133.39 40.952ZM131.15 45.816L121.488 43.2394L121.461 43.3402L121.436 43.4415L131.15 45.816ZM131.598 60.6L122.111 63.7623L122.147 63.8689L122.185 63.9746L131.598 60.6ZM135.374 65.784L129.639 73.9763L129.639 73.9763L135.374 65.784ZM147.47 66.936L145.254 57.1847L145.229 57.1902L145.205 57.1959L147.47 66.936ZM153.55 65.144H163.55V51.01L150.222 55.7141L153.55 65.144ZM153.55 73.272L157.298 82.5431L163.55 80.0157V73.272H153.55ZM147.598 75.064L149.518 84.8779L149.518 84.8779L147.598 75.064ZM129.358 72.76L123.921 81.1525L123.989 81.1968L124.058 81.24L129.358 72.76ZM122.638 64.568L113.384 68.3587L113.392 68.3784L113.401 68.3981L122.638 64.568ZM121.87 42.744L131.371 45.8637L131.378 45.843L131.384 45.8222L121.87 42.744ZM125.966 35.256L118.45 28.6601L118.411 28.7039L118.373 28.7481L125.966 35.256ZM132.686 30.392L128.747 21.2005L128.72 21.212L128.693 21.2237L132.686 30.392ZM148.686 29.56L146.132 39.2284L146.238 39.2565L146.345 39.2822L148.686 29.56ZM155.278 31.864L164.568 35.5649L168.054 26.8141L159.527 22.8116L155.278 31.864ZM152.142 39.736L147.851 48.7688L157.485 53.3447L161.432 43.4369L152.142 39.736ZM146.958 37.624L143.654 47.0626L143.69 47.0752L143.727 47.0875L146.958 37.624ZM141.902 26.728C138.72 26.728 135.514 27.3658 132.502 28.8717L141.446 46.7603C141.409 46.7788 141.402 46.7755 141.45 46.7648C141.503 46.7532 141.645 46.728 141.902 46.728V26.728ZM132.394 28.9263C129.495 30.4198 127.115 32.5482 125.27 35.1156L141.51 46.7884C141.547 46.7372 141.574 46.7054 141.589 46.6885C141.604 46.6718 141.61 46.6669 141.607 46.6698C141.604 46.6728 141.595 46.6796 141.583 46.688C141.571 46.6964 141.56 46.7024 141.554 46.7057L132.394 28.9263ZM125.359 34.9935C123.487 37.5162 122.26 40.3448 121.488 43.2394L140.812 48.3926C141.064 47.4472 141.33 47.0331 141.421 46.9105L125.359 34.9935ZM121.436 43.4415C120.742 46.2802 120.446 49.2507 120.446 52.28H140.446C140.446 50.5306 140.619 49.1918 140.864 48.1905L121.436 43.4415ZM120.446 52.28C120.446 56.2604 120.911 60.1616 122.111 63.7623L141.085 57.4377C140.749 56.4304 140.446 54.785 140.446 52.28H120.446ZM122.185 63.9746C123.583 67.8754 125.988 71.4201 129.639 73.9763L141.109 57.5917C141.139 57.613 141.17 57.6389 141.198 57.6659C141.225 57.6926 141.236 57.7084 141.233 57.7044C141.229 57.6988 141.134 57.5684 141.011 57.2254L122.185 63.9746ZM129.639 73.9763C133.43 76.6299 137.76 77.576 141.902 77.576V57.576C141.324 57.576 141.026 57.5101 140.933 57.4847C140.858 57.4641 140.948 57.4795 141.109 57.5917L129.639 73.9763ZM141.902 77.576C144.544 77.576 147.16 77.2749 149.735 76.6761L145.205 57.1959C144.11 57.4505 143.014 57.576 141.902 57.576V77.576ZM149.686 76.6873C152.005 76.1603 154.407 75.4461 156.878 74.5739L150.222 55.7141C148.341 56.3779 146.689 56.8584 145.254 57.1847L149.686 76.6873ZM143.55 65.144V73.272H163.55V65.144H143.55ZM149.802 64.0009C148.34 64.592 146.967 64.9978 145.678 65.2501L149.518 84.8779C152.154 84.3622 154.749 83.5733 157.298 82.5431L149.802 64.0009ZM145.678 65.2501C144.466 65.4872 142.926 65.64 141.006 65.64V85.64C143.95 85.64 146.805 85.4088 149.518 84.8779L145.678 65.2501ZM141.006 65.64C137.642 65.64 135.735 64.9529 134.658 64.28L124.058 81.24C129.125 84.4071 134.983 85.64 141.006 85.64V65.64ZM134.795 64.3675C133.552 63.5619 132.591 62.4637 131.875 60.7379L113.401 68.3981C115.586 73.6696 119.105 78.0328 123.921 81.1525L134.795 64.3675ZM131.892 60.7773C131.032 58.6779 130.462 55.8951 130.462 52.216H110.462C110.462 57.9236 111.343 63.3754 113.384 68.3587L131.892 60.7773ZM130.462 52.216C130.462 49.6652 130.808 47.5784 131.371 45.8637L112.369 39.6243C111.055 43.6269 110.462 47.8548 110.462 52.216H130.462ZM131.384 45.8222C131.96 44.0444 132.716 42.7469 133.559 41.7639L118.373 28.7481C115.632 31.9464 113.658 35.6409 112.356 39.6658L131.384 45.8222ZM133.482 41.8519C134.309 40.9092 135.331 40.1472 136.679 39.5603L128.693 21.2237C124.75 22.9408 121.292 25.4214 118.45 28.6601L133.482 41.8519ZM136.625 39.5834C137.863 39.0528 139.558 38.664 141.902 38.664V18.664C137.334 18.664 132.885 19.4272 128.747 21.2005L136.625 39.5834ZM141.902 38.664C143.272 38.664 144.676 38.8436 146.132 39.2284L151.24 19.8916C148.174 19.0817 145.055 18.664 141.902 18.664V38.664ZM146.345 39.2822C148.009 39.6828 149.566 40.2297 151.029 40.9164L159.527 22.8116C156.809 21.5357 153.971 20.5465 151.027 19.8378L146.345 39.2822ZM145.988 28.1631L142.852 36.0351L161.432 43.4369L164.568 35.5649L145.988 28.1631ZM156.433 30.7032C154.389 29.7325 152.308 28.8838 150.189 28.1605L143.727 47.0875C145.107 47.5589 146.482 48.1181 147.851 48.7688L156.433 30.7032ZM150.262 28.1854C147.585 27.2486 144.784 26.728 141.902 26.728V46.728C142.348 46.728 142.918 46.8047 143.654 47.0626L150.262 28.1854ZM185.212 41.272L180.481 50.0819L180.514 50.0999L180.548 50.1177L185.212 41.272ZM190.652 46.648L181.873 51.4365L181.873 51.4365L190.652 46.648ZM192.572 59.896V69.896H202.572V59.896H192.572ZM170.044 59.896V49.896H159.722L160.049 60.2133L170.044 59.896ZM172.412 66.232L165.242 73.2028L165.291 73.2533L165.341 73.3031L172.412 66.232ZM184.892 67.896L187.157 77.6361L187.264 77.6112L187.37 77.584L184.892 67.896ZM190.588 65.784H200.588V49.9166L186.273 56.7627L190.588 65.784ZM190.588 73.144L195.06 82.0883L200.588 79.3243V73.144H190.588ZM185.148 75L183.187 65.1942L183.059 65.2198L182.932 65.2487L185.148 75ZM169.02 73.72L164.605 82.6926L164.663 82.721L164.721 82.7486L169.02 73.72ZM162.684 67.768L154.036 72.7894L154.036 72.7894L162.684 67.768ZM162.428 47.608L153.54 43.0251L153.526 43.0522L153.512 43.0793L162.428 47.608ZM168.252 41.464L163.421 32.7082L163.421 32.7082L168.252 41.464ZM172.348 47.992L165.402 40.798L165.339 40.8589L165.277 40.9209L172.348 47.992ZM170.236 53.56L160.272 52.7156L159.353 63.56H170.236V53.56ZM183.612 53.56V63.56H193.612V53.56H183.612ZM182.844 49.784L173.634 53.6804L173.697 53.8285L173.764 53.9746L182.844 49.784ZM180.668 47.16L186.131 38.7839L186.131 38.7839L180.668 47.16ZM176.892 49.416C178.874 49.416 179.94 49.7916 180.481 50.0819L189.943 32.4621C185.876 30.2777 181.396 29.416 176.892 29.416V49.416ZM180.548 50.1177C181.14 50.4296 181.528 50.8037 181.873 51.4365L199.431 41.8595C197.216 37.7989 193.978 34.589 189.876 32.4263L180.548 50.1177ZM181.873 51.4365C182.16 51.9626 182.572 53.0954 182.572 55.288H202.572C202.572 50.654 201.704 46.0267 199.431 41.8595L181.873 51.4365ZM182.572 55.288V59.896H202.572V55.288H182.572ZM192.572 49.896H170.044V69.896H192.572V49.896ZM160.049 60.2133C160.192 64.7316 161.598 69.4546 165.242 73.2028L179.582 59.2612C179.704 59.3871 179.813 59.526 179.901 59.6676C179.989 59.8078 180.04 59.9236 180.067 59.9951C180.119 60.134 180.054 60.0382 180.039 59.5787L160.049 60.2133ZM165.341 73.3031C169.177 77.1388 174.075 78.536 178.748 78.536V58.536C178.347 58.536 178.335 58.4782 178.565 58.5621C178.682 58.6045 178.838 58.6753 179.012 58.7851C179.187 58.8956 179.347 59.0246 179.483 59.1609L165.341 73.3031ZM178.748 78.536C181.625 78.536 184.449 78.2658 187.157 77.6361L182.627 58.1559C181.665 58.3795 180.394 58.536 178.748 58.536V78.536ZM187.37 77.584C189.923 76.9311 192.436 75.985 194.903 74.8053L186.273 56.7627C184.815 57.4604 183.531 57.9222 182.414 58.208L187.37 77.584ZM180.588 65.784V73.144H200.588V65.784H180.588ZM186.116 64.1997C185.225 64.6452 184.258 64.9799 183.187 65.1942L187.109 84.8058C189.878 84.2521 192.538 83.3494 195.06 82.0883L186.116 64.1997ZM182.932 65.2487C182.004 65.4595 180.512 65.64 178.3 65.64V85.64C181.464 85.64 184.537 85.3939 187.364 84.7513L182.932 65.2487ZM178.3 65.64C176.03 65.64 174.449 65.2293 173.319 64.6914L164.721 82.7486C168.967 84.7707 173.572 85.64 178.3 85.64V65.64ZM173.435 64.7474C172.556 64.3149 171.9 63.7245 171.332 62.7466L154.036 72.7894C156.54 77.1022 160.108 80.4798 164.605 82.6926L173.435 64.7474ZM171.332 62.7466C170.916 62.03 170.38 60.5648 170.38 57.784H150.38C150.38 63.0245 151.38 68.2153 154.036 72.7894L171.332 62.7466ZM170.38 57.784C170.38 54.7252 170.9 53.0106 171.344 52.1367L153.512 43.0793C151.225 47.5814 150.38 52.6508 150.38 57.784H170.38ZM171.316 52.1909C171.898 51.0623 172.496 50.5436 173.083 50.2198L163.421 32.7082C159.059 35.1151 155.774 38.6924 153.54 43.0251L171.316 52.1909ZM173.083 50.2198C173.854 49.7944 175.02 49.416 176.892 49.416V29.416C172.193 29.416 167.6 30.4029 163.421 32.7082L173.083 50.2198ZM176.956 36.2C172.72 36.2 168.636 37.6752 165.402 40.798L179.294 55.186C179 55.4698 178.576 55.7646 178.052 55.968C177.541 56.1669 177.139 56.2 176.956 56.2V36.2ZM165.277 40.9209C161.759 44.439 160.589 48.9713 160.272 52.7156L180.2 54.4044C180.249 53.8319 180.326 53.6881 180.274 53.8265C180.211 53.9925 179.982 54.5003 179.419 55.0631L165.277 40.9209ZM170.236 63.56H183.612V43.56H170.236V63.56ZM193.612 53.56C193.612 50.9248 193.128 48.2025 191.924 45.5934L173.764 53.9746C173.68 53.792 173.639 53.6429 173.621 53.5531C173.603 53.4672 173.612 53.4621 173.612 53.56H193.612ZM192.054 45.8876C190.832 43.0002 188.828 40.543 186.131 38.7839L175.205 55.5361C174.882 55.325 174.548 55.0385 174.25 54.6794C173.954 54.322 173.757 53.97 173.634 53.6804L192.054 45.8876ZM186.131 38.7839C183.132 36.8281 179.86 36.2 176.956 36.2V56.2C177.039 56.2 176.242 56.2119 175.205 55.5361L186.131 38.7839ZM229.297 44.024L221.456 50.231L221.477 50.2578L221.499 50.2843L229.297 44.024ZM231.217 67.512L240.408 71.4512L240.419 71.4251L240.43 71.399L231.217 67.512ZM226.481 73.592L220.853 65.326L220.853 65.326L226.481 73.592ZM215.153 75L211.789 84.4174L211.841 84.4359L211.893 84.4537L215.153 75ZM212.081 73.336L218.327 65.5273L218.327 65.5273L212.081 73.336ZM209.841 71.16L217.523 64.7582L214.524 61.16H209.841V71.16ZM209.329 71.16V61.16H197.004L199.543 73.2201L209.329 71.16ZM209.713 73.72L199.758 74.6681L199.76 74.6916L199.762 74.715L209.713 73.72ZM209.841 90.36V100.36H219.841V90.36H209.841ZM200.305 90.36H190.305V100.36H200.305V90.36ZM200.305 40.056V30.056H190.305V40.056H200.305ZM208.049 40.056L217.638 37.2197L215.519 30.056H208.049V40.056ZM209.393 44.6L199.803 47.4363L201.922 54.6H209.393V44.6ZM209.841 44.6V54.6H215.126L218.103 50.2334L209.841 44.6ZM212.145 42.04L218.652 49.6326L218.754 49.5453L218.854 49.4554L212.145 42.04ZM215.345 40.12L211.902 30.7312L211.85 30.7503L211.798 30.77L215.345 40.12ZM212.721 48.056L207.01 39.8469L207.01 39.8469L212.721 48.056ZM210.545 51.192L201.058 48.0297L201.028 48.1192L201 48.2093L210.545 51.192ZM209.841 56.376L199.843 56.172L199.841 56.274V56.376H209.841ZM210.481 63.16L200.827 65.7691L200.836 65.8028L200.845 65.8364L210.481 63.16ZM212.657 66.68L218.864 58.8395L218.864 58.8395L212.657 66.68ZM220.401 66.68L213.864 59.1118L213.864 59.1118L220.401 66.68ZM222.513 63.096L212.927 60.2463L212.927 60.2463L222.513 63.096ZM221.617 49.656L212.986 54.7078L213.06 54.833L213.137 54.956L221.617 49.656ZM219.761 49.416C220.387 49.416 220.65 49.5297 220.738 49.5719C220.824 49.6137 221.073 49.7473 221.456 50.231L237.137 37.817C232.804 32.344 226.735 29.416 219.761 29.416V49.416ZM221.499 50.2843C221.926 50.8164 222.944 52.6689 222.944 57.464H242.944C242.944 50.3978 241.531 43.2903 237.094 37.7637L221.499 50.2843ZM222.944 57.464C222.944 60.5242 222.492 62.4651 222.003 63.625L240.43 71.399C242.245 67.0975 242.944 62.3398 242.944 57.464H222.944ZM222.025 63.5728C221.468 64.8716 220.984 65.2364 220.853 65.326L232.108 81.858C235.987 79.217 238.661 75.5284 240.408 71.4512L222.025 63.5728ZM220.853 65.326C220.657 65.4592 220.332 65.64 219.505 65.64V85.64C223.967 85.64 228.293 84.4555 232.108 81.858L220.853 65.326ZM219.505 65.64C218.663 65.64 218.36 65.5283 218.412 65.5463L211.893 84.4537C214.419 85.325 217.018 85.64 219.505 85.64V65.64ZM218.516 65.5826C218.2 65.4699 218.189 65.4163 218.327 65.5273L205.834 81.1447C207.679 82.621 209.715 83.6768 211.789 84.4174L218.516 65.5826ZM218.327 65.5273C217.951 65.2258 217.695 64.965 217.523 64.7582L202.158 77.5618C203.266 78.891 204.504 80.0809 205.834 81.1447L218.327 65.5273ZM209.841 61.16H209.329V81.16H209.841V61.16ZM199.543 73.2201C199.63 73.6337 199.705 74.114 199.758 74.6681L219.667 72.7719C219.55 71.534 219.368 70.3076 219.114 69.0999L199.543 73.2201ZM199.762 74.715C199.815 75.2394 199.841 75.7606 199.841 76.28H219.841C219.841 75.0927 219.781 73.9073 219.663 72.725L199.762 74.715ZM199.841 76.28V90.36H219.841V76.28H199.841ZM209.841 80.36H200.305V100.36H209.841V80.36ZM210.305 90.36V40.056H190.305V90.36H210.305ZM200.305 50.056H208.049V30.056H200.305V50.056ZM198.459 42.8923L199.803 47.4363L218.982 41.7637L217.638 37.2197L198.459 42.8923ZM209.393 54.6H209.841V34.6H209.393V54.6ZM218.103 50.2334C218.228 50.0499 218.399 49.8498 218.652 49.6326L205.637 34.4474C204.098 35.7662 202.733 37.2728 201.578 38.9666L218.103 50.2334ZM218.854 49.4554C218.831 49.4762 218.81 49.493 218.792 49.5058C218.775 49.5185 218.764 49.5253 218.761 49.5269C218.759 49.5285 218.766 49.5237 218.787 49.514C218.807 49.5042 218.841 49.489 218.891 49.47L211.798 30.77C209.506 31.6393 207.34 32.9013 205.435 34.6246L218.854 49.4554ZM218.787 49.5088C218.751 49.5219 219.02 49.416 219.761 49.416V29.416C217.173 29.416 214.498 29.7795 211.902 30.7312L218.787 49.5088ZM216.689 37.032C213.759 37.032 210.208 37.6223 207.01 39.8469L218.431 56.2651C217.196 57.1244 216.29 57.032 216.689 57.032V37.032ZM207.01 39.8469C203.868 42.0323 202.041 45.0787 201.058 48.0297L220.031 54.3543C219.986 54.4893 219.61 55.4451 218.431 56.265L207.01 39.8469ZM201 48.2093C200.195 50.7854 199.896 53.531 199.843 56.172L219.838 56.58C219.87 55.0396 220.041 54.3292 220.089 54.1747L201 48.2093ZM199.841 56.376V57.4H219.841V56.376H199.841ZM199.841 57.4C199.841 60.2327 200.101 63.0852 200.827 65.7691L220.134 60.5509C220.006 60.0775 219.841 59.09 219.841 57.4H199.841ZM200.845 65.8364C201.711 68.9544 203.426 72.1272 206.449 74.5205L218.864 58.8395C219.312 59.1947 219.637 59.5887 219.85 59.9338C220.054 60.2636 220.115 60.4801 220.116 60.4836L200.845 65.8364ZM206.449 74.5205C209.758 77.1394 213.577 77.896 216.817 77.896V57.896C216.557 57.896 217.603 57.8419 218.864 58.8395L206.449 74.5205ZM216.817 77.896C220.237 77.896 223.881 76.8874 226.937 74.2482L213.864 59.1118C214.387 58.6604 214.986 58.3262 215.588 58.1222C216.167 57.9256 216.61 57.896 216.817 57.896V77.896ZM226.937 74.2482C229.724 71.8407 231.258 68.7691 232.098 65.9457L212.927 60.2463C212.828 60.5802 212.954 59.898 213.864 59.1118L226.937 74.2482ZM232.098 65.9457C232.923 63.17 233.217 60.23 233.217 57.336H213.217C213.217 58.9647 213.041 59.8647 212.927 60.2463L232.098 65.9457ZM233.217 57.336C233.217 53.2047 232.629 48.4085 230.096 44.356L213.137 54.956C212.888 54.5589 212.932 54.4432 213.027 54.8955C213.119 55.3375 213.217 56.1195 213.217 57.336H233.217ZM230.247 44.6042C227.192 39.3861 222.007 37.032 216.689 37.032V57.032C216.529 57.032 215.822 56.9967 214.917 56.5147C213.959 56.0048 213.323 55.2833 212.986 54.7078L230.247 44.6042ZM249.893 56.568L239.924 55.7705L239.908 55.9692L239.9 56.1683L249.893 56.568ZM249.701 59.832L239.73 59.065L239.715 59.2561L239.708 59.4477L249.701 59.832ZM249.509 62.776L259.459 63.771L259.459 63.771L249.509 62.776ZM249.317 64.568L239.394 63.3277L257.67 70.0646L249.317 64.568ZM265.445 40.056V30.056H260.054L257.091 34.5594L265.445 40.056ZM276.901 40.056H286.901V30.056H276.901V40.056ZM276.901 75V85H286.901V75H276.901ZM267.685 75H257.685V85H267.685V75ZM267.812 57.272L277.793 57.8958L277.794 57.8864L277.794 57.877L267.812 57.272ZM268.069 53.368L258.122 52.339L258.105 52.497L258.094 52.6555L268.069 53.368ZM268.325 50.552L278.302 51.2172L280.829 13.3101L259.967 45.0607L268.325 50.552ZM252.26 75V85H257.655L260.618 80.4913L252.26 75ZM240.805 75H230.805V85H240.805V75ZM240.805 40.056V30.056H230.805V40.056H240.805ZM250.021 40.056H260.021V30.056H250.021V40.056ZM240.021 53.88C240.021 54.2467 239.997 54.8574 239.924 55.7705L259.861 57.3655C259.958 56.1453 260.021 54.964 260.021 53.88H240.021ZM239.9 56.1683C239.863 57.1074 239.806 58.0729 239.73 59.065L259.671 60.599C259.765 59.3725 259.837 58.1619 259.885 56.9677L239.9 56.1683ZM239.708 59.4477C239.671 60.4088 239.618 61.1795 239.558 61.781L259.459 63.771C259.569 62.6658 259.645 61.4739 259.693 60.2163L239.708 59.4477ZM239.558 61.781C239.472 62.6374 239.419 63.1229 239.394 63.3277L259.239 65.8083C259.299 65.3305 259.374 64.6213 259.459 63.771L239.558 61.781ZM257.67 70.0646L273.798 45.5526L257.091 34.5594L240.963 59.0714L257.67 70.0646ZM265.445 50.056H276.901V30.056H265.445V50.056ZM266.901 40.056V75H286.901V40.056H266.901ZM276.901 65H267.685V85H276.901V65ZM277.685 75V61.048H257.685V75H277.685ZM277.685 61.048C277.685 60.1382 277.718 59.0906 277.793 57.8958L257.832 56.6482C257.736 58.1841 257.685 59.6538 257.685 61.048H277.685ZM277.794 57.877C277.878 56.4987 277.961 55.2337 278.043 54.0805L258.094 52.6555C258.006 53.8916 257.918 55.2293 257.831 56.667L277.794 57.877ZM278.015 54.397C278.147 53.1284 278.247 52.0439 278.302 51.2172L258.347 49.8868C258.316 50.3401 258.246 51.133 258.122 52.339L278.015 54.397ZM259.967 45.0607L243.903 69.5087L260.618 80.4913L276.682 56.0433L259.967 45.0607ZM252.26 65H240.805V85H252.26V65ZM250.805 75V40.056H230.805V75H250.805ZM240.805 50.056H250.021V30.056H240.805V50.056ZM240.021 40.056V53.88H260.021V40.056H240.021ZM311.955 42.424L305.579 50.1279L305.651 50.1874L305.724 50.2456L311.955 42.424ZM315.731 75V85H325.731V75H315.731ZM309.075 75L299.764 78.6487L302.253 85H309.075V75ZM307.219 70.264L316.53 66.6153L314.041 60.264H307.219V70.264ZM306.963 70.264V60.264H302.131L299.128 64.0501L306.963 70.264ZM303.891 73.336L297.84 65.3744L297.761 65.4342L297.684 65.4955L303.891 73.336ZM300.307 75.064L297.882 65.3626L297.699 65.4081L297.519 65.4605L300.307 75.064ZM289.811 74.488L285.339 83.4323L285.479 83.5021L285.62 83.5676L289.811 74.488ZM285.971 70.84L277.261 75.7532L277.289 75.8019L277.317 75.8504L285.971 70.84ZM288.467 56.376L294.045 64.6755L294.092 64.6443L294.138 64.6125L288.467 56.376ZM300.179 53.432L299.863 43.437L299.851 43.4374L300.179 53.432ZM306.259 53.24L306.575 63.235L316.259 62.9292V53.24H306.259ZM304.787 47.672L298.06 55.0714L298.142 55.1456L298.225 55.2181L304.787 47.672ZM295.827 47.16L298.608 56.7656L298.723 56.7321L298.838 56.6958L295.827 47.16ZM290.963 48.952L281.966 53.3169L286.197 62.039L295.047 58.0802L290.963 48.952ZM287.827 42.488L283.194 33.6257L274.594 38.1215L278.83 46.8529L287.827 42.488ZM294.035 40.184L291.694 30.4618L291.674 30.4668L291.653 30.4719L294.035 40.184ZM302.547 58.936L302.825 68.9321L302.858 68.9312L302.892 68.9301L302.547 58.936ZM296.147 60.6L289.639 53.0074L289.639 53.0074L296.147 60.6ZM295.635 67.768L289.635 75.768L289.766 75.8663L289.9 75.9603L295.635 67.768ZM304.147 66.872L310.617 74.4971L310.683 74.4409L310.748 74.3836L304.147 66.872ZM306.259 58.808H316.259V48.4572L305.914 48.8139L306.259 58.808ZM301.203 49.352C304.612 49.352 305.564 50.1153 305.579 50.1279L318.331 34.7201C313.397 30.6367 307.181 29.352 301.203 29.352V49.352ZM305.724 50.2456C305.683 50.2127 305.624 50.1556 305.571 50.0835C305.519 50.013 305.509 49.9787 305.524 50.0169C305.561 50.1066 305.731 50.5914 305.731 51.704H325.731C325.731 45.4641 323.762 39.0447 318.186 34.6024L305.724 50.2456ZM305.731 51.704V75H325.731V51.704H305.731ZM315.731 65H309.075V85H315.731V65ZM318.386 71.3513L316.53 66.6153L297.908 73.9127L299.764 78.6487L318.386 71.3513ZM307.219 60.264H306.963V80.264H307.219V60.264ZM299.128 64.0501C298.576 64.7457 298.135 65.1499 297.84 65.3744L309.942 81.2976C311.78 79.9007 313.387 78.2569 314.798 76.4779L299.128 64.0501ZM297.684 65.4955C297.757 65.4374 297.829 65.3947 297.884 65.3683C297.937 65.3429 297.943 65.3472 297.882 65.3626L302.732 84.7654C305.368 84.1066 307.876 82.9359 310.098 81.1765L297.684 65.4955ZM297.519 65.4605C297.396 65.4961 296.763 65.64 295.379 65.64V85.64C297.92 85.64 300.572 85.3999 303.095 84.6675L297.519 65.4605ZM295.379 65.64C294.607 65.64 294.205 65.5023 294.002 65.4084L285.62 83.5676C288.745 85.0097 292.055 85.64 295.379 85.64V65.64ZM294.283 65.5437C294.333 65.5687 294.426 65.6268 294.522 65.718C294.617 65.8074 294.645 65.8637 294.625 65.8296L277.317 75.8504C279.2 79.1036 281.908 81.7168 285.339 83.4323L294.283 65.5437ZM294.681 65.9268C294.815 66.1644 294.563 65.8936 294.563 64.568H274.563C274.563 68.277 275.25 72.1876 277.261 75.7532L294.681 65.9268ZM294.563 64.568C294.563 63.8693 294.685 63.7897 294.566 64.0381C294.508 64.1604 294.418 64.3046 294.298 64.4418C294.18 64.5773 294.081 64.6516 294.045 64.6755L282.889 48.0765C276.984 52.045 274.563 58.2307 274.563 64.568H294.563ZM294.138 64.6125C294.446 64.4006 296.099 63.5711 300.507 63.4266L299.851 43.4374C293.848 43.6342 287.694 44.7674 282.796 48.1395L294.138 64.6125ZM300.495 63.427L306.575 63.235L305.943 43.245L299.863 43.437L300.495 63.427ZM316.259 53.24V51.704H296.259V53.24H316.259ZM316.259 51.704C316.259 48.2055 315.297 43.5594 311.349 40.1259L298.225 55.2181C297.314 54.4257 296.773 53.5041 296.497 52.7494C296.246 52.0616 296.259 51.6421 296.259 51.704H316.259ZM311.514 40.2726C308.177 37.2396 304.141 36.392 300.819 36.392V56.392C300.91 56.392 299.519 56.3978 298.06 55.0714L311.514 40.2726ZM300.819 36.392C298.095 36.392 295.415 36.8034 292.816 37.6242L298.838 56.6958C299.482 56.4926 300.13 56.392 300.819 56.392V36.392ZM293.046 37.5544C290.958 38.159 288.902 38.9191 286.879 39.8238L295.047 58.0802C296.267 57.5342 297.454 57.0997 298.608 56.7656L293.046 37.5544ZM299.96 44.5871L296.824 38.1231L278.83 46.8529L281.966 53.3169L299.96 44.5871ZM292.46 51.3503C293.557 50.7765 294.861 50.2778 296.417 49.8961L291.653 30.4719C288.686 31.1995 285.851 32.2369 283.194 33.6257L292.46 51.3503ZM296.376 49.9062C297.88 49.5441 299.482 49.352 301.203 49.352V29.352C297.975 29.352 294.798 29.7146 291.694 30.4618L296.376 49.9062ZM302.269 48.9399C298.771 49.037 293.597 49.6146 289.639 53.0074L302.655 68.1926C302.177 68.6021 301.758 68.8351 301.505 68.955C301.255 69.0737 301.12 69.1044 301.159 69.0942C301.196 69.0848 301.346 69.0493 301.639 69.0133C301.929 68.9776 302.32 68.9462 302.825 68.9321L302.269 48.9399ZM289.639 53.0074C286.087 56.0524 284.355 60.2401 284.355 64.632H304.355C304.355 65.0154 304.281 65.6729 303.941 66.4374C303.595 67.2167 303.105 67.8064 302.655 68.1926L289.639 53.0074ZM284.355 64.632C284.355 68.0102 285.426 72.611 289.635 75.768L301.635 59.768C302.742 60.5985 303.504 61.6738 303.933 62.725C304.328 63.6906 304.355 64.4145 304.355 64.632H284.355ZM289.9 75.9603C292.887 78.051 296.178 78.664 298.963 78.664V58.664C299.017 58.664 300.09 58.6797 301.37 59.5757L289.9 75.9603ZM298.963 78.664C303.104 78.664 307.201 77.395 310.617 74.4971L297.677 59.2469C297.909 59.0505 298.209 58.8752 298.528 58.7648C298.833 58.6593 299.007 58.664 298.963 58.664V78.664ZM310.748 74.3836C314.717 70.8958 316.259 66.2029 316.259 61.688H296.259C296.259 61.7435 296.251 61.4127 296.47 60.875C296.706 60.2967 297.091 59.7601 297.546 59.3604L310.748 74.3836ZM316.259 61.688V58.808H296.259V61.688H316.259ZM305.914 48.8139L302.202 48.9419L302.892 68.9301L306.604 68.8021L305.914 48.8139ZM356.788 75V85H366.788V75H356.788ZM347.252 75H337.252V85H347.252V75ZM347.252 47.224H357.252V37.224H347.252V47.224ZM338.484 47.224V37.224H329.283L328.519 46.3935L338.484 47.224ZM336.884 60.344L327.036 58.6061L327.028 58.653L327.02 58.7L336.884 60.344ZM334.58 69.112L325.344 65.2782L325.313 65.353L325.283 65.4284L334.58 69.112ZM331.124 74.104L337.006 82.1914L337.085 82.1339L337.163 82.0749L331.124 74.104ZM322.932 75.384L324.803 65.5606L324.803 65.5606L322.932 75.384ZM320.5 74.616H310.5V80.9621L316.242 83.6642L320.5 74.616ZM320.5 67L323.917 57.6021L310.5 52.723V67H320.5ZM321.972 67.448L324.397 57.7466L324.397 57.7466L321.972 67.448ZM325.236 66.936L318.777 59.3021L318.625 59.4303L318.479 59.5645L325.236 66.936ZM326.772 64.44L317.581 60.5008L317.52 60.6413L317.464 60.7835L326.772 64.44ZM328.18 59.512L318.382 57.5124L318.382 57.5124L328.18 59.512ZM329.332 51.64L319.403 50.4485L319.396 50.5068L319.39 50.5652L329.332 51.64ZM330.356 40.056V30.056H320.995L320.378 39.3971L330.356 40.056ZM356.788 40.056H366.788V30.056H356.788V40.056ZM356.788 65H347.252V85H356.788V65ZM357.252 75V47.224H337.252V75H357.252ZM347.252 37.224H338.484V57.224H347.252V37.224ZM328.519 46.3935C328.108 51.3182 327.607 55.3711 327.036 58.6061L346.732 62.0819C347.441 58.0636 348.007 53.3698 348.449 48.0545L328.519 46.3935ZM327.02 58.7C326.494 61.857 325.887 63.9704 325.344 65.2782L343.816 72.9458C345.15 69.731 346.079 65.999 346.748 61.988L327.02 58.7ZM325.283 65.4284C325.061 65.9879 324.888 66.2689 324.822 66.3639C324.762 66.4501 324.833 66.3245 325.085 66.1331L337.163 82.0749C340.478 79.563 342.551 76.1418 343.877 72.7956L325.283 65.4284ZM325.242 66.0166C325.491 65.8355 325.742 65.7239 325.931 65.668C326.105 65.6165 326.131 65.64 325.94 65.64V85.64C329.717 85.64 333.602 84.6668 337.006 82.1914L325.242 66.0166ZM325.94 65.64C325.329 65.64 324.967 65.5918 324.803 65.5606L321.061 85.2074C322.689 85.5175 324.332 85.64 325.94 85.64V65.64ZM324.803 65.5606C324.621 65.5259 324.627 65.5064 324.758 65.5678L316.242 83.6642C317.823 84.4083 319.451 84.9007 321.061 85.2074L324.803 65.5606ZM330.5 74.616V67H310.5V74.616H330.5ZM317.083 76.3979C317.895 76.6933 318.718 76.9422 319.547 77.1494L324.397 57.7466C324.202 57.6978 324.044 57.648 323.917 57.6021L317.083 76.3979ZM319.547 77.1494C320.891 77.4856 322.241 77.64 323.572 77.64V57.64C323.793 57.64 324.077 57.6664 324.397 57.7466L319.547 77.1494ZM323.572 77.64C327.074 77.64 329.957 76.1739 331.993 74.3075L318.479 59.5645C318.938 59.1438 319.618 58.6443 320.54 58.2543C321.485 57.8545 322.521 57.64 323.572 57.64V77.64ZM331.695 74.5699C334.145 72.4974 335.404 69.8164 336.08 68.0965L317.464 60.7835C317.383 60.9907 317.387 60.9349 317.519 60.719C317.64 60.5233 318.022 59.9409 318.777 59.3021L331.695 74.5699ZM335.963 68.3792C336.858 66.2918 337.49 63.9025 337.978 61.5116L318.382 57.5124C318.017 59.3029 317.71 60.1988 317.581 60.5008L335.963 68.3792ZM337.978 61.5116C338.489 59.0067 338.914 56.0485 339.274 52.7148L319.39 50.5652C319.068 53.5461 318.724 55.836 318.382 57.5124L337.978 61.5116ZM339.261 52.8314C339.673 49.3997 340.028 45.3503 340.334 40.7149L320.378 39.3971C320.087 43.807 319.759 47.4803 319.403 50.4485L339.261 52.8314ZM330.356 50.056H356.788V30.056H330.356V50.056ZM346.788 40.056V75H366.788V40.056H346.788ZM411.568 29.88H421.568V19.88H411.568V29.88ZM411.568 39.864V49.864H421.568V39.864H411.568ZM399.536 39.864V29.864H389.536V39.864H399.536ZM399.536 75V85H409.536V75H399.536ZM386.992 75H376.992V85H386.992V75ZM386.992 39.864H396.992V29.864H386.992V39.864ZM375.088 39.864H365.088V49.864H375.088V39.864ZM375.088 29.88V19.88H365.088V29.88H375.088ZM401.568 29.88V39.864H421.568V29.88H401.568ZM411.568 29.864H399.536V49.864H411.568V29.864ZM389.536 39.864V75H409.536V39.864H389.536ZM399.536 65H386.992V85H399.536V65ZM396.992 75V39.864H376.992V75H396.992ZM386.992 29.864H375.088V49.864H386.992V29.864ZM385.088 39.864V29.88H365.088V39.864H385.088ZM375.088 39.88H411.568V19.88H375.088V39.88ZM423.249 73.208L418.564 82.0426L418.591 82.0571L418.619 82.0715L423.249 73.208ZM416.593 66.808L425.226 61.761L425.226 61.761L416.593 66.808ZM416.593 47.288L408.018 42.143L407.989 42.1919L407.96 42.241L416.593 47.288ZM423.313 40.888L418.683 32.0245L418.655 32.0389L418.628 32.0534L423.313 40.888ZM442.577 40.888L437.892 49.7226L437.919 49.7371L437.947 49.7515L442.577 40.888ZM449.297 47.288L440.664 52.335L440.693 52.3841L440.722 52.433L449.297 47.288ZM449.297 66.808L440.688 61.7207L440.676 61.7408L440.664 61.761L449.297 66.808ZM442.577 73.208L437.947 64.3445L442.577 73.208ZM437.265 62.648L429.844 55.9451L429.838 55.9517L429.832 55.9584L437.265 62.648ZM437.265 51.448L429.832 58.1376L429.893 58.205L429.954 58.2712L437.265 51.448ZM428.625 62.648L421.068 69.1973L421.068 69.1973L428.625 62.648ZM432.913 65.448C430.759 65.448 429.155 65.0112 427.879 64.3445L418.619 82.0715C423.06 84.3915 427.899 85.448 432.913 85.448V65.448ZM427.934 64.3734C426.774 63.7583 425.917 62.9427 425.226 61.761L407.96 71.855C410.512 76.22 414.092 79.6711 418.564 82.0426L427.934 64.3734ZM425.226 61.761C424.641 60.7605 424.161 59.2993 424.161 57.016H404.161C404.161 62.242 405.302 67.3088 407.96 71.855L425.226 61.761ZM424.161 57.016C424.161 54.7982 424.631 53.3524 425.226 52.335L407.96 42.241C405.312 46.7702 404.161 51.8098 404.161 57.016H424.161ZM425.168 52.433C425.91 51.1965 426.815 50.35 427.998 49.7226L418.628 32.0534C414.179 34.4127 410.604 37.8328 408.018 42.143L425.168 52.433ZM427.943 49.7515C429.219 49.0848 430.823 48.648 432.977 48.648V28.648C427.963 28.648 423.124 29.7045 418.683 32.0245L427.943 49.7515ZM432.977 48.648C435.134 48.648 436.691 49.0856 437.892 49.7226L447.262 32.0534C442.831 29.7038 437.988 28.648 432.977 28.648V48.648ZM437.947 49.7515C439.146 50.3779 439.996 51.1916 440.664 52.335L457.93 42.241C455.356 37.8377 451.725 34.3848 447.207 32.0245L437.947 49.7515ZM440.722 52.433C441.323 53.4339 441.793 54.8438 441.793 57.016H461.793C461.793 51.7642 460.599 46.6887 457.872 42.143L440.722 52.433ZM441.793 57.016C441.793 59.1845 441.324 60.6445 440.688 61.7207L457.906 71.8953C460.598 67.3395 461.793 62.2715 461.793 57.016H441.793ZM440.664 61.761C439.996 62.9044 439.146 63.7181 437.947 64.3445L447.207 82.0715C451.725 79.7112 455.356 76.2583 457.93 71.855L440.664 61.761ZM437.947 64.3445C436.671 65.0112 435.067 65.448 432.913 65.448V85.448C437.927 85.448 442.766 84.3915 447.207 82.0715L437.947 64.3445ZM432.913 74.568C437.446 74.568 441.615 72.7626 444.698 69.3376L429.832 55.9584C430.119 55.6392 430.601 55.2371 431.277 54.9388C431.949 54.6422 432.542 54.568 432.913 54.568V74.568ZM444.686 69.3509C448.064 65.6109 449.057 61.0135 449.057 57.016H429.057C429.057 57.4344 429.003 57.4562 429.08 57.216C429.168 56.939 429.388 56.4499 429.844 55.9451L444.686 69.3509ZM449.057 57.016C449.057 53.0437 448.074 48.373 444.576 44.6248L429.954 58.2712C429.439 57.719 429.19 57.1757 429.09 56.8636C429.002 56.5919 429.057 56.5941 429.057 57.016H449.057ZM444.698 44.7583C441.669 41.393 437.548 39.528 432.977 39.528V59.528C432.55 59.528 431.925 59.4405 431.242 59.1348C430.562 58.8302 430.096 58.4305 429.832 58.1376L444.698 44.7583ZM432.977 39.528C428.406 39.528 424.285 41.393 421.256 44.7583L436.122 58.1376C435.858 58.4305 435.392 58.8302 434.712 59.1348C434.029 59.4405 433.404 59.528 432.977 59.528V39.528ZM421.256 44.7583C417.88 48.51 416.961 53.1279 416.961 57.016H436.961C436.961 56.5639 437.017 56.5263 436.944 56.764C436.858 57.0385 436.63 57.5731 436.122 58.1376L421.256 44.7583ZM416.961 57.016C416.961 60.8118 417.794 65.4197 421.068 69.1973L436.182 56.0987C436.697 56.6934 436.903 57.2278 436.967 57.4465C437.022 57.6331 436.961 57.5346 436.961 57.016H416.961ZM421.068 69.1973C424.147 72.7498 428.372 74.568 432.913 74.568V54.568C433.281 54.568 433.902 54.6416 434.616 54.9612C435.338 55.2845 435.861 55.7281 436.182 56.0987L421.068 69.1973ZM456.833 47.288L447.861 42.8712L447.833 42.927L447.806 42.9833L456.833 47.288ZM462.401 40.888L457.032 32.4514L457.032 32.4514L462.401 40.888ZM476.353 40.12L471.549 48.891L471.673 48.9585L471.798 49.0225L476.353 40.12ZM480.641 44.024L472.124 49.265L490.641 79.3544V44.024H480.641ZM480.641 27.64V17.64H470.641V27.64H480.641ZM493.249 27.64H503.249V17.64H493.249V27.64ZM493.249 75V85H503.249V75H493.249ZM480.641 75H470.641V85H480.641V75ZM480.641 70.008H490.641V33.3659L472.027 64.9281L480.641 70.008ZM476.481 73.976L471.677 65.205L476.481 73.976ZM462.337 73.208L456.898 81.5995L456.933 81.6222L456.968 81.6446L462.337 73.208ZM456.833 66.808L447.781 71.0594L447.82 71.1425L447.861 71.2248L456.833 66.808ZM478.785 51.576L471.482 58.4076L471.54 58.4694L471.598 58.5302L478.785 51.576ZM469.505 51.576L476.694 58.5262L476.751 58.4674L476.807 58.4076L469.505 51.576ZM469.505 62.52L462.095 69.2352L462.148 69.2938L462.202 69.3516L469.505 62.52ZM478.785 62.52L471.598 55.5658L471.54 55.6266L471.482 55.6884L478.785 62.52ZM464.849 57.016C464.849 54.4884 465.297 52.7709 465.859 51.5927L447.806 42.9833C445.723 47.3517 444.849 52.1196 444.849 57.016H464.849ZM465.804 51.7048C466.453 50.3879 467.137 49.7267 467.769 49.3246L457.032 32.4514C452.97 35.036 449.943 38.6414 447.861 42.8712L465.804 51.7048ZM467.769 49.3246C468.465 48.8818 469.196 48.648 470.208 48.648V28.648C465.504 28.648 461.029 29.9075 457.032 32.4514L467.769 49.3246ZM470.208 48.648C471.051 48.648 471.41 48.8145 471.549 48.891L481.156 31.349C477.711 29.4629 473.974 28.648 470.208 28.648V48.648ZM471.798 49.0225C471.978 49.1145 472.051 49.1789 472.068 49.1944C472.083 49.2075 472.098 49.2221 472.124 49.265L489.157 38.783C487.119 35.4718 484.28 32.943 480.907 31.2175L471.798 49.0225ZM490.641 44.024V27.64H470.641V44.024H490.641ZM480.641 37.64H493.249V17.64H480.641V37.64ZM483.249 27.64V75H503.249V27.64H483.249ZM493.249 65H480.641V85H493.249V65ZM490.641 75V70.008H470.641V75H490.641ZM472.027 64.9281C472.001 64.9724 471.983 64.9922 471.962 65.0119C471.939 65.0341 471.86 65.1049 471.677 65.205L481.284 82.747C484.56 80.9526 487.305 78.3933 489.254 75.0879L472.027 64.9281ZM471.677 65.205C471.615 65.2394 471.217 65.448 470.145 65.448V85.448C473.936 85.448 477.762 84.6752 481.284 82.747L471.677 65.205ZM470.145 65.448C469.132 65.448 468.401 65.2142 467.705 64.7714L456.968 81.6446C460.965 84.1885 465.44 85.448 470.145 85.448V65.448ZM467.775 64.8165C467.17 64.4241 466.475 63.7536 465.804 62.3912L447.861 71.2248C449.921 75.409 452.895 79.0052 456.898 81.5995L467.775 64.8165ZM465.884 62.5566C465.295 61.3031 464.849 59.5386 464.849 57.016H444.849C444.849 61.9174 445.725 66.6809 447.781 71.0594L465.884 62.5566ZM490.705 57.016C490.705 52.803 489.482 48.2506 485.971 44.6218L471.598 58.5302C471.194 58.1119 470.931 57.6434 470.795 57.2562C470.671 56.9057 470.705 56.7794 470.705 57.016H490.705ZM486.087 44.7444C482.931 41.3709 478.738 39.592 474.177 39.592V59.592C473.867 59.592 473.348 59.5301 472.75 59.2728C472.149 59.0143 471.726 58.6685 471.482 58.4076L486.087 44.7444ZM474.177 39.592C469.645 39.592 465.407 41.3187 462.202 44.7444L476.807 58.4076C476.541 58.6924 476.104 59.0399 475.509 59.2924C474.923 59.5415 474.433 59.592 474.177 59.592V39.592ZM462.315 44.6258C458.759 48.3041 457.649 52.9273 457.649 57.016H477.649C477.649 56.7032 477.692 56.7885 477.577 57.125C477.448 57.503 477.175 58.0292 476.694 58.5262L462.315 44.6258ZM457.649 57.016C457.649 61.1554 458.802 65.6017 462.095 69.2352L476.914 55.8048C477.266 56.1924 477.481 56.6066 477.588 56.9247C477.685 57.2112 477.649 57.2821 477.649 57.016H457.649ZM462.202 69.3516C465.407 72.7773 469.645 74.504 474.177 74.504V54.504C474.433 54.504 474.923 54.5545 475.509 54.8036C476.104 55.0561 476.541 55.4036 476.807 55.6884L462.202 69.3516ZM474.177 74.504C478.738 74.504 482.931 72.725 486.087 69.3516L471.482 55.6884C471.726 55.4275 472.149 55.0817 472.75 54.8232C473.348 54.5659 473.867 54.504 474.177 54.504V74.504ZM485.971 69.4742C489.514 65.8121 490.705 61.2131 490.705 57.016H470.705C470.705 57.2936 470.665 57.1937 470.783 56.8583C470.913 56.4842 471.174 56.0043 471.598 55.5658L485.971 69.4742ZM500.333 47.288L491.361 42.8712L491.333 42.927L491.306 42.9833L500.333 47.288ZM505.837 40.888L500.468 32.4514L500.433 32.4738L500.398 32.4965L505.837 40.888ZM520.045 40.12L515.241 48.891L515.241 48.891L520.045 40.12ZM524.205 44.088L515.591 49.1678L534.205 80.7301V44.088H524.205ZM524.205 39.096V29.096H514.205V39.096H524.205ZM536.749 39.096H546.749V29.096H536.749V39.096ZM536.749 75V85H546.749V75H536.749ZM524.205 75H514.205V85H524.205V75ZM524.205 70.008H534.205V33.3659L515.591 64.9281L524.205 70.008ZM519.981 73.976L515.264 65.1582L515.221 65.1814L515.177 65.205L519.981 73.976ZM505.837 73.208L500.398 81.5995L500.433 81.6222L500.468 81.6446L505.837 73.208ZM500.333 66.808L491.281 71.0594L491.32 71.1425L491.361 71.2248L500.333 66.808ZM522.285 51.576L514.982 58.4076L515.04 58.4694L515.098 58.5302L522.285 51.576ZM513.005 51.576L520.194 58.5262L520.251 58.4674L520.307 58.4076L513.005 51.576ZM513.005 62.52L505.595 69.2352L505.648 69.2938L505.702 69.3516L513.005 62.52ZM522.285 62.52L515.098 55.5658L515.04 55.6266L514.982 55.6884L522.285 62.52ZM508.349 57.016C508.349 54.4884 508.797 52.7709 509.359 51.5927L491.306 42.9833C489.223 47.3517 488.349 52.1196 488.349 57.016H508.349ZM509.304 51.7048C509.975 50.3424 510.67 49.6719 511.275 49.2795L500.398 32.4965C496.395 35.0908 493.421 38.687 491.361 42.8712L509.304 51.7048ZM511.205 49.3246C511.901 48.8818 512.632 48.648 513.645 48.648V28.648C508.94 28.648 504.465 29.9075 500.468 32.4514L511.205 49.3246ZM513.645 48.648C514.793 48.648 515.203 48.8698 515.241 48.891L524.848 31.349C521.302 29.4075 517.446 28.648 513.645 28.648V48.648ZM515.241 48.891C515.424 48.9911 515.503 49.0619 515.526 49.0841C515.547 49.1038 515.565 49.1236 515.591 49.1678L532.818 39.0081C530.869 35.7027 528.124 33.1434 524.848 31.349L515.241 48.891ZM534.205 44.088V39.096H514.205V44.088H534.205ZM524.205 49.096H536.749V29.096H524.205V49.096ZM526.749 39.096V75H546.749V39.096H526.749ZM536.749 65H524.205V85H536.749V65ZM534.205 75V70.008H514.205V75H534.205ZM515.591 64.9281C515.582 64.9439 515.579 64.947 515.566 64.9595C515.549 64.9754 515.466 65.0499 515.264 65.1582L524.697 82.7938C528.02 81.0167 530.833 78.4534 532.818 75.0879L515.591 64.9281ZM515.177 65.205C515.115 65.2394 514.717 65.448 513.645 65.448V85.448C517.436 85.448 521.262 84.6752 524.784 82.747L515.177 65.205ZM513.645 65.448C512.632 65.448 511.901 65.2142 511.205 64.7714L500.468 81.6446C504.465 84.1885 508.94 85.448 513.645 85.448V65.448ZM511.275 64.8165C510.67 64.4241 509.975 63.7536 509.304 62.3912L491.361 71.2248C493.421 75.409 496.395 79.0052 500.398 81.5995L511.275 64.8165ZM509.384 62.5566C508.795 61.3031 508.349 59.5386 508.349 57.016H488.349C488.349 61.9174 489.225 66.6809 491.281 71.0594L509.384 62.5566ZM534.205 57.016C534.205 52.803 532.982 48.2506 529.471 44.6218L515.098 58.5302C514.694 58.1119 514.431 57.6434 514.295 57.2562C514.171 56.9057 514.205 56.7794 514.205 57.016H534.205ZM529.587 44.7444C526.431 41.3709 522.238 39.592 517.677 39.592V59.592C517.367 59.592 516.848 59.5301 516.25 59.2728C515.649 59.0143 515.226 58.6685 514.982 58.4076L529.587 44.7444ZM517.677 39.592C513.145 39.592 508.907 41.3187 505.702 44.7444L520.307 58.4076C520.041 58.6924 519.604 59.0399 519.009 59.2924C518.423 59.5415 517.933 59.592 517.677 59.592V39.592ZM505.815 44.6258C502.259 48.3041 501.149 52.9273 501.149 57.016H521.149C521.149 56.7032 521.192 56.7885 521.077 57.125C520.948 57.503 520.675 58.0292 520.194 58.5262L505.815 44.6258ZM501.149 57.016C501.149 61.1554 502.302 65.6017 505.595 69.2352L520.414 55.8048C520.766 56.1924 520.981 56.6066 521.088 56.9247C521.185 57.2112 521.149 57.2821 521.149 57.016H501.149ZM505.702 69.3516C508.907 72.7773 513.145 74.504 517.677 74.504V54.504C517.933 54.504 518.423 54.5545 519.009 54.8036C519.604 55.0561 520.041 55.4036 520.307 55.6884L505.702 69.3516ZM517.677 74.504C522.238 74.504 526.431 72.725 529.587 69.3516L514.982 55.6884C515.226 55.4275 515.649 55.0817 516.25 54.8232C516.848 54.5659 517.367 54.504 517.677 54.504V74.504ZM529.471 69.4742C533.014 65.8121 534.205 61.2131 534.205 57.016H514.205C514.205 57.2936 514.165 57.1937 514.283 56.8583C514.413 56.4842 514.674 56.0043 515.098 55.5658L529.471 69.4742ZM582.553 39.096L591.739 43.0459L597.737 29.096H582.553V39.096ZM559.769 92.088V102.088H566.354L568.955 96.0379L559.769 92.088ZM546.137 92.088L537.053 87.9053L530.522 102.088H546.137V92.088ZM554.713 73.464L563.796 77.6467L565.654 73.611L563.905 69.5269L554.713 73.464ZM539.992 39.096V29.096H524.831L530.8 43.0331L539.992 39.096ZM553.945 39.096L563.32 35.6171L560.9 29.096H553.945V39.096ZM561.497 59.448L552.121 62.9269L561.658 88.6292L570.91 62.8226L561.497 59.448ZM568.793 39.096V29.096H561.754L559.379 35.7214L568.793 39.096ZM573.366 35.1461L550.582 88.1381L568.955 96.0379L591.739 43.0459L573.366 35.1461ZM559.769 82.088H546.137V102.088H559.769V82.088ZM555.22 96.2707L563.796 77.6467L545.629 69.2813L537.053 87.9053L555.22 96.2707ZM563.905 69.5269L549.185 35.1589L530.8 43.0331L545.52 77.4011L563.905 69.5269ZM539.992 49.096H553.945V29.096H539.992V49.096ZM544.569 42.5749L552.121 62.9269L570.872 55.9691L563.32 35.6171L544.569 42.5749ZM570.91 62.8226L578.206 42.4706L559.379 35.7214L552.083 56.0734L570.91 62.8226ZM568.793 49.096H582.553V29.096H568.793V49.096Z" fill="url(#paint1_linear_159_2429)" mask="url(#path-2-inside-1_159_2429)"/>
</g>
<defs>
<filter id="filter0_d_159_2429" x="-1.52588e-05" y="0" width="122" height="122" filterUnits="userSpaceOnUse" color-interpolation-filters="sRGB">
<feFlood flood-opacity="0" result="BackgroundImageFix"/>
<feColorMatrix in="SourceAlpha" type="matrix" values="0 0 0 0 0 0 0 0 0 0 0 0 0 0 0 0 0 0 127 0" result="hardAlpha"/>
<feOffset dy="4"/>
<feGaussianBlur stdDeviation="2"/>
<feColorMatrix type="matrix" values="0 0 0 0 0 0 0 0 0 0 0 0 0 0 0 0 0 0 0.5 0"/>
<feBlend mode="normal" in2="BackgroundImageFix" result="effect1_dropShadow_159_2429"/>
<feBlend mode="normal" in="SourceGraphic" in2="effect1_dropShadow_159_2429" result="shape"/>
</filter>
<filter id="filter1_d_159_2429" x="116.462" y="27.64" width="470.09" height="72.448" filterUnits="userSpaceOnUse" color-interpolation-filters="sRGB">
<feFlood flood-opacity="0" result="BackgroundImageFix"/>
<feColorMatrix in="SourceAlpha" type="matrix" values="0 0 0 0 0 0 0 0 0 0 0 0 0 0 0 0 0 0 127 0" result="hardAlpha"/>
<feOffset dy="4"/>
<feGaussianBlur stdDeviation="2"/>
<feColorMatrix type="matrix" values="0 0 0 0 0 0 0 0 0 0 0 0 0 0 0 0 0 0 0.5 0"/>
<feBlend mode="normal" in2="BackgroundImageFix" result="effect1_dropShadow_159_2429"/>
<feBlend mode="normal" in="SourceGraphic" in2="effect1_dropShadow_159_2429" result="shape"/>
</filter>
<linearGradient id="paint0_linear_159_2429" x1="9.19495" y1="5.19491" x2="581.542" y2="108.805" gradientUnits="userSpaceOnUse">
<stop stop-color="#FF8400"/>
<stop offset="1" stop-color="#CF4307"/>
</linearGradient>
<linearGradient id="paint1_linear_159_2429" x1="3.00004" y1="-5.00004" x2="608" y2="101" gradientUnits="userSpaceOnUse">
<stop stop-color="#FF8400"/>
<stop offset="1" stop-color="#CF4307"/>
</linearGradient>
</defs>
</svg>
